<svg width="32" height="32" viewBox="0 0 32 32" fill="none" xmlns="http://www.w3.org/2000/svg">
<rect width="32" height="32" rx="12" fill="#7DF4FF"/>
<path d="M14.95 19.45L20.2375 14.1625L19.1875 13.1125L14.95 17.35L12.8125 15.2125L11.7625 16.2625L14.95 19.45ZM16 23.5C14.9625 23.5 13.9875 23.3031 13.075 22.9094C12.1625 22.5156 11.3687 21.9812 10.6937 21.3062C10.0187 20.6312 9.48438 19.8375 9.09062 18.925C8.69687 18.0125 8.5 17.0375 8.5 16C8.5 14.9625 8.69687 13.9875 9.09062 13.075C9.48438 12.1625 10.0187 11.3687 10.6937 10.6937C11.3687 10.0187 12.1625 9.48438 13.075 9.09062C13.9875 8.69687 14.9625 8.5 16 8.5C17.0375 8.5 18.0125 8.69687 18.925 9.09062C19.8375 9.48438 20.6312 10.0187 21.3062 10.6937C21.9812 11.3687 22.5156 12.1625 22.9094 13.075C23.3031 13.9875 23.5 14.9625 23.5 16C23.5 17.0375 23.3031 18.0125 22.9094 18.925C22.5156 19.8375 21.9812 20.6312 21.3062 21.3062C20.6312 21.9812 19.8375 22.5156 18.925 22.9094C18.0125 23.3031 17.0375 23.5 16 23.5Z" fill="#006970"/>
</svg>
