<svg width="68" height="48" viewBox="0 0 68 48" fill="none" xmlns="http://www.w3.org/2000/svg">
<path d="M6.8 48L16 32C11.6 32 7.83333 30.4333 4.7 27.3C1.56667 24.1667 0 20.4 0 16C0 11.6 1.56667 7.83333 4.7 4.7C7.83333 1.56667 11.6 0 16 0C20.4 0 24.1667 1.56667 27.3 4.7C30.4333 7.83333 32 11.6 32 16C32 17.5333 31.8167 18.95 31.45 20.25C31.0833 21.55 30.5333 22.8 29.8 24L16 48H6.8ZM42.8 48L52 32C47.6 32 43.8333 30.4333 40.7 27.3C37.5667 24.1667 36 20.4 36 16C36 11.6 37.5667 7.83333 40.7 4.7C43.8333 1.56667 47.6 0 52 0C56.4 0 60.1667 1.56667 63.3 4.7C66.4333 7.83333 68 11.6 68 16C68 17.5333 67.8167 18.95 67.45 20.25C67.0833 21.55 66.5333 22.8 65.8 24L52 48H42.8Z" fill="white"/>
</svg>
