<svg width="14" height="18" viewBox="0 0 14 18" fill="none" xmlns="http://www.w3.org/2000/svg">
<path d="M5.5 14.5H8.5V12H11V9H8.5V6.5H5.5V9H3V12H5.5V14.5ZM2 18C1.45 18 0.979167 17.8042 0.5875 17.4125C0.195833 17.0208 0 16.55 0 16V5C0 4.45 0.195833 3.97917 0.5875 3.5875C0.979167 3.19583 1.45 3 2 3H12C12.55 3 13.0208 3.19583 13.4125 3.5875C13.8042 3.97917 14 4.45 14 5V16C14 16.55 13.8042 17.0208 13.4125 17.4125C13.0208 17.8042 12.55 18 12 18H2ZM2 16H12V5H2V16ZM1 2V0H13V2H1ZM2 5V16V5Z" fill="#0050CB"/>
</svg>
